<mxfile host="app.diagrams.net" agent="Mozilla/5.0 (Windows NT 10.0; Win64; x64) AppleWebKit/537.36 (KHTML, like Gecko) Chrome/130.0.0.0 Safari/537.36" version="24.8.3">
  <diagram id="C5RBs43oDa-KdzZeNtuy" name="Page-1">
    <mxGraphModel dx="2468" dy="918" grid="1" gridSize="10" guides="1" tooltips="1" connect="1" arrows="1" fold="1" page="0" pageScale="1" pageWidth="827" pageHeight="1169" math="0" shadow="0">
      <root>
        <mxCell id="WIyWlLk6GJQsqaUBKTNV-0" />
        <mxCell id="WIyWlLk6GJQsqaUBKTNV-1" parent="WIyWlLk6GJQsqaUBKTNV-0" />
        <mxCell id="WIyWlLk6GJQsqaUBKTNV-3" value="&lt;div&gt;(Script)&lt;/div&gt;&#39;calcula_tr_func3&#39;&lt;div&gt;call_func3&lt;/div&gt;" style="rounded=1;whiteSpace=wrap;html=1;fontSize=12;glass=0;strokeWidth=1;shadow=0;fillColor=#1ba1e2;fontColor=#ffffff;strokeColor=#006EAF;fontStyle=1" parent="WIyWlLk6GJQsqaUBKTNV-1" vertex="1">
          <mxGeometry x="-261" y="110" width="136" height="60" as="geometry" />
        </mxCell>
        <mxCell id="uFymRsZD5cepGyMi8nIv-0" value="&lt;div&gt;(Function)&lt;/div&gt;&lt;div&gt;&lt;span style=&quot;background-color: initial;&quot;&gt;&#39;func3_frf_disp&#39;&lt;/span&gt;&lt;/div&gt;&lt;div&gt;&lt;span style=&quot;background-color: initial;&quot;&gt;call_func_lattice_type_full&lt;/span&gt;&lt;/div&gt;" style="rounded=1;whiteSpace=wrap;html=1;fontSize=12;glass=0;strokeWidth=1;shadow=0;fillColor=#fa6800;fontColor=#000000;strokeColor=#C73500;fontStyle=1" parent="WIyWlLk6GJQsqaUBKTNV-1" vertex="1">
          <mxGeometry x="-280" y="231.25" width="174" height="75" as="geometry" />
        </mxCell>
        <mxCell id="uFymRsZD5cepGyMi8nIv-4" value="" style="endArrow=classic;html=1;rounded=0;entryX=0;entryY=0.5;entryDx=0;entryDy=0;" parent="WIyWlLk6GJQsqaUBKTNV-1" target="uFymRsZD5cepGyMi8nIv-6" edge="1">
          <mxGeometry width="50" height="50" relative="1" as="geometry">
            <mxPoint x="-106" y="268.25" as="sourcePoint" />
            <mxPoint x="-46" y="268.25" as="targetPoint" />
          </mxGeometry>
        </mxCell>
        <mxCell id="uFymRsZD5cepGyMi8nIv-6" value="&lt;div&gt;(Function)&lt;/div&gt;&#39;func_lattice_type_full&#39;&lt;div&gt;call_database&lt;/div&gt;" style="rounded=1;whiteSpace=wrap;html=1;fontSize=12;glass=0;strokeWidth=1;shadow=0;fillColor=#fa6800;fontColor=#000000;strokeColor=#C73500;fontStyle=1" parent="WIyWlLk6GJQsqaUBKTNV-1" vertex="1">
          <mxGeometry x="-41" y="230" width="136" height="77.5" as="geometry" />
        </mxCell>
        <mxCell id="uFymRsZD5cepGyMi8nIv-8" value="&lt;b&gt;&lt;font style=&quot;font-size: 15px;&quot;&gt;database&lt;/font&gt;&lt;/b&gt;&lt;div&gt;&lt;b&gt;&lt;font style=&quot;font-size: 15px;&quot;&gt;pwe_epwe&lt;/font&gt;&lt;/b&gt;&lt;div&gt;&lt;b&gt;&lt;font style=&quot;font-size: 15px;&quot;&gt;all_lattices&lt;/font&gt;&lt;/b&gt;&lt;/div&gt;&lt;/div&gt;" style="shape=cylinder3;whiteSpace=wrap;html=1;boundedLbl=1;backgroundOutline=1;size=15;fillColor=#60a917;fontColor=#ffffff;strokeColor=#2D7600;" parent="WIyWlLk6GJQsqaUBKTNV-1" vertex="1">
          <mxGeometry x="149" y="182.5" width="120" height="145" as="geometry" />
        </mxCell>
        <mxCell id="uFymRsZD5cepGyMi8nIv-9" value="" style="endArrow=classic;html=1;rounded=0;entryX=0.5;entryY=0;entryDx=0;entryDy=0;exitX=0.5;exitY=1;exitDx=0;exitDy=0;" parent="WIyWlLk6GJQsqaUBKTNV-1" source="WIyWlLk6GJQsqaUBKTNV-3" target="uFymRsZD5cepGyMi8nIv-0" edge="1">
          <mxGeometry width="50" height="50" relative="1" as="geometry">
            <mxPoint x="-160.5" y="170" as="sourcePoint" />
            <mxPoint x="-160.5" y="220" as="targetPoint" />
          </mxGeometry>
        </mxCell>
        <mxCell id="uFymRsZD5cepGyMi8nIv-15" value="" style="endArrow=classic;html=1;rounded=0;entryX=1;entryY=0.5;entryDx=0;entryDy=0;" parent="WIyWlLk6GJQsqaUBKTNV-1" target="uFymRsZD5cepGyMi8nIv-6" edge="1">
          <mxGeometry width="50" height="50" relative="1" as="geometry">
            <mxPoint x="149" y="268.08" as="sourcePoint" />
            <mxPoint x="109" y="268.08" as="targetPoint" />
            <Array as="points" />
          </mxGeometry>
        </mxCell>
        <mxCell id="uFymRsZD5cepGyMi8nIv-16" value="" style="endArrow=none;html=1;rounded=0;" parent="WIyWlLk6GJQsqaUBKTNV-1" edge="1">
          <mxGeometry width="50" height="50" relative="1" as="geometry">
            <mxPoint x="350" y="445" as="sourcePoint" />
            <mxPoint x="350" y="62.5" as="targetPoint" />
            <Array as="points">
              <mxPoint x="350" y="280" />
            </Array>
          </mxGeometry>
        </mxCell>
        <mxCell id="PuAEEZnOOM0AFzHRyymF-5" value="" style="endArrow=classic;html=1;rounded=0;exitX=0.067;exitY=0.714;exitDx=0;exitDy=0;exitPerimeter=0;" parent="WIyWlLk6GJQsqaUBKTNV-1" edge="1">
          <mxGeometry width="50" height="50" relative="1" as="geometry">
            <mxPoint x="400" y="448.75" as="sourcePoint" />
            <mxPoint x="350" y="448.75" as="targetPoint" />
          </mxGeometry>
        </mxCell>
        <object label="kag_lattice" id="uFymRsZD5cepGyMi8nIv-14">
          <mxCell style="shape=cylinder3;whiteSpace=wrap;html=1;boundedLbl=1;backgroundOutline=1;size=15;fillColor=#60a917;fontColor=#ffffff;strokeColor=#2D7600;fontStyle=1" parent="WIyWlLk6GJQsqaUBKTNV-1" vertex="1">
            <mxGeometry x="397" y="408.75" width="90" height="70" as="geometry" />
          </mxCell>
        </object>
        <mxCell id="PuAEEZnOOM0AFzHRyymF-6" value="" style="endArrow=classic;html=1;rounded=0;exitX=0.067;exitY=0.714;exitDx=0;exitDy=0;exitPerimeter=0;" parent="WIyWlLk6GJQsqaUBKTNV-1" edge="1">
          <mxGeometry width="50" height="50" relative="1" as="geometry">
            <mxPoint x="403" y="58.75" as="sourcePoint" />
            <mxPoint x="350" y="58.75" as="targetPoint" />
          </mxGeometry>
        </mxCell>
        <mxCell id="uFymRsZD5cepGyMi8nIv-10" value="square_lattice" style="shape=cylinder3;whiteSpace=wrap;html=1;boundedLbl=1;backgroundOutline=1;size=15;fillColor=#60a917;fontColor=#ffffff;strokeColor=#2D7600;fontStyle=1" parent="WIyWlLk6GJQsqaUBKTNV-1" vertex="1">
          <mxGeometry x="397" y="20" width="90" height="70" as="geometry" />
        </mxCell>
        <mxCell id="PuAEEZnOOM0AFzHRyymF-13" value="" style="endArrow=classic;html=1;rounded=0;" parent="WIyWlLk6GJQsqaUBKTNV-1" edge="1">
          <mxGeometry width="50" height="50" relative="1" as="geometry">
            <mxPoint x="407" y="158.75" as="sourcePoint" />
            <mxPoint x="350" y="158.75" as="targetPoint" />
          </mxGeometry>
        </mxCell>
        <mxCell id="uFymRsZD5cepGyMi8nIv-11" value="rect_lattice" style="shape=cylinder3;whiteSpace=wrap;html=1;boundedLbl=1;backgroundOutline=1;size=15;fillColor=#60a917;fontColor=#ffffff;strokeColor=#2D7600;fontStyle=1" parent="WIyWlLk6GJQsqaUBKTNV-1" vertex="1">
          <mxGeometry x="397" y="118.75" width="90" height="70" as="geometry" />
        </mxCell>
        <mxCell id="PuAEEZnOOM0AFzHRyymF-7" value="" style="endArrow=classic;html=1;rounded=0;exitX=0.067;exitY=0.714;exitDx=0;exitDy=0;exitPerimeter=0;" parent="WIyWlLk6GJQsqaUBKTNV-1" edge="1">
          <mxGeometry width="50" height="50" relative="1" as="geometry">
            <mxPoint x="403" y="261.25" as="sourcePoint" />
            <mxPoint x="350" y="261.75" as="targetPoint" />
          </mxGeometry>
        </mxCell>
        <mxCell id="uFymRsZD5cepGyMi8nIv-12" value="trian_lattice" style="shape=cylinder3;whiteSpace=wrap;html=1;boundedLbl=1;backgroundOutline=1;size=15;fillColor=#60a917;fontColor=#ffffff;strokeColor=#2D7600;fontStyle=1" parent="WIyWlLk6GJQsqaUBKTNV-1" vertex="1">
          <mxGeometry x="397" y="218.75" width="90" height="70" as="geometry" />
        </mxCell>
        <mxCell id="PuAEEZnOOM0AFzHRyymF-4" value="" style="endArrow=classic;html=1;rounded=0;exitX=0.067;exitY=0.714;exitDx=0;exitDy=0;exitPerimeter=0;" parent="WIyWlLk6GJQsqaUBKTNV-1" edge="1">
          <mxGeometry width="50" height="50" relative="1" as="geometry">
            <mxPoint x="403" y="358.75" as="sourcePoint" />
            <mxPoint x="350" y="358.75" as="targetPoint" />
          </mxGeometry>
        </mxCell>
        <mxCell id="uFymRsZD5cepGyMi8nIv-13" value="hex_lattice" style="shape=cylinder3;whiteSpace=wrap;html=1;boundedLbl=1;backgroundOutline=1;size=15;fillColor=#60a917;fontColor=#ffffff;strokeColor=#2D7600;fontStyle=1" parent="WIyWlLk6GJQsqaUBKTNV-1" vertex="1">
          <mxGeometry x="397" y="318.75" width="90" height="70" as="geometry" />
        </mxCell>
        <mxCell id="PuAEEZnOOM0AFzHRyymF-16" value="" style="shape=flexArrow;endArrow=classic;html=1;rounded=0;" parent="WIyWlLk6GJQsqaUBKTNV-1" edge="1">
          <mxGeometry width="50" height="50" relative="1" as="geometry">
            <mxPoint x="330" y="265.42" as="sourcePoint" />
            <mxPoint x="280" y="265.25" as="targetPoint" />
          </mxGeometry>
        </mxCell>
        <mxCell id="PuAEEZnOOM0AFzHRyymF-17" style="edgeStyle=orthogonalEdgeStyle;rounded=0;orthogonalLoop=1;jettySize=auto;html=1;exitX=0.5;exitY=1;exitDx=0;exitDy=0;" parent="WIyWlLk6GJQsqaUBKTNV-1" source="uFymRsZD5cepGyMi8nIv-6" target="uFymRsZD5cepGyMi8nIv-6" edge="1">
          <mxGeometry relative="1" as="geometry" />
        </mxCell>
        <mxCell id="PuAEEZnOOM0AFzHRyymF-19" value="" style="endArrow=classic;html=1;rounded=0;exitX=0.067;exitY=0.714;exitDx=0;exitDy=0;exitPerimeter=0;" parent="WIyWlLk6GJQsqaUBKTNV-1" edge="1">
          <mxGeometry width="50" height="50" relative="1" as="geometry">
            <mxPoint x="400" y="448.75" as="sourcePoint" />
            <mxPoint x="350" y="448.75" as="targetPoint" />
          </mxGeometry>
        </mxCell>
        <mxCell id="U_I_P0XwNfsvV2ErOZ_C-0" value="" style="shape=image;verticalLabelPosition=bottom;labelBackgroundColor=default;verticalAlign=top;aspect=fixed;imageAspect=0;image=data:image/svg+xml,PHN2ZyB4bWxucz0iaHR0cDovL3d3dy53My5vcmcvMjAwMC9zdmciIGhlaWdodD0iMjEyOCIgd2lkdGg9IjI1MDAiIHZpZXdCb3g9IjIgMy4yOTk5OTk5OTk5OTk5OTkgMjggMjUuNDMiPjxsaW5lYXJHcmFkaWVudCB5Mj0iMjIuNDExIiB5MT0iMTYuNjMxIiB4Mj0iMTUuMDEzIiB4MT0iMTYuODAzIiBncmFkaWVudFVuaXRzPSJ1c2VyU3BhY2VPblVzZSIgZ3JhZGllbnRUcmFuc2Zvcm09Im1hdHJpeCgxIDAgMCAtMSAwIDMyKSIgaWQ9ImEiPjxzdG9wIHN0b3AtY29sb3I9IiM1MTIiIG9mZnNldD0iMCIvPjxzdG9wIHN0b3AtY29sb3I9IiM1MjMiIG9mZnNldD0iLjIzIi8+PHN0b3Agc3RvcC1jb2xvcj0iIzUzNCIgb2Zmc2V0PSIuMzYiLz48c3RvcCBzdG9wLWNvbG9yPSIjNjQ1IiBvZmZzZXQ9Ii41MSIvPjxzdG9wIHN0b3AtY29sb3I9IiM1NjgiIG9mZnNldD0iLjY2Ii8+PHN0b3Agc3RvcC1jb2xvcj0iIzI5ZCIgb2Zmc2V0PSIuODQiLz48L2xpbmVhckdyYWRpZW50PjxsaW5lYXJHcmFkaWVudCB5Mj0iMTQuNTYzIiB5MT0iMTguOTgzIiB4Mj0iMTEuNzEiIHgxPSIyOS43MSIgZ3JhZGllbnRVbml0cz0idXNlclNwYWNlT25Vc2UiIGlkPSJiIj48c3RvcCBzdG9wLWNvbG9yPSIjYzMzIiBvZmZzZXQ9Ii4wODEiLz48c3RvcCBzdG9wLWNvbG9yPSIjZGU1MjM5IiBvZmZzZXQ9Ii4xODkiLz48c3RvcCBzdG9wLWNvbG9yPSIjZjA2ZTNlIiBvZmZzZXQ9Ii4zMTMiLz48c3RvcCBzdG9wLWNvbG9yPSIjZmE4MDQyIiBvZmZzZXQ9Ii40MjEiLz48c3RvcCBzdG9wLWNvbG9yPSIjZmU4NjQzIiBvZmZzZXQ9Ii41Ii8+PHN0b3Agc3RvcC1jb2xvcj0iI2ZhN2Y0MiIgb2Zmc2V0PSIuNTgiLz48c3RvcCBzdG9wLWNvbG9yPSIjZWY2YzNlIiBvZmZzZXQ9Ii42OTYiLz48c3RvcCBzdG9wLWNvbG9yPSIjZGM0YzM3IiBvZmZzZXQ9Ii44MzMiLz48c3RvcCBzdG9wLWNvbG9yPSIjY2YzNjMzIiBvZmZzZXQ9Ii45MTYiLz48L2xpbmVhckdyYWRpZW50PjxwYXRoIGZpbGw9IiM0OWQiIGQ9Ik0yIDE3LjU1bDcuOTctMy4yMmEyMC43IDIwLjcgMCAwIDEgMi43Mi0yLjk1Yy42Ni0uMzUgMS45LS4xNiA0LjE3LTIuOTggMi4yLTIuNzUgMi45LTUuMSAzLjkzLTUuMSAxLjYzIDAgMi44MyAzLjUyIDQuNjUgOC44NUExMTUuNjI5IDExNS42MjkgMCAwIDAgMzAgMjQuMTJjLTEuOS0xLjc3LTMuNTItMy42OC01LjM3LTMuNjMtMS43Mi4wNC0zLjYzIDIuMDgtNS43MiA0LjctMS42NiAyLjEtMy44NiAzLjU0LTQuNzIgMy41MSAwIDAtMi4yMi02LjI4LTQuMDgtNy4zYTIuNjQxIDIuNjQxIDAgMCAwLTIuMzkuMkwyIDE3LjU0eiIvPjxwYXRoIGZpbGw9InVybCgjYSkiIGQ9Ik0xOS44IDQuMDJjLS42Ny45LTEuNDggMi41NS0yLjk0IDQuMzgtMi4yNyAyLjgyLTMuNSAyLjYzLTQuMTcgMi45OGExOS42NzQgMTkuNjc0IDAgMCAwLTIuNzIgMi45NWwzLjMgMi40MWMyLjgtMy44MiA0LjMtNy45NiA1LjQ3LTEwLjY0YTEzLjU3OSAxMy41NzkgMCAwIDEgMS4wNi0yLjA4eiIvPjxwYXRoIGZpbGw9InVybCgjYikiIGQ9Ik0yMC44IDMuM2MtMi4xOCAwLTMuNjcgMTEuNDgtMTEuNzIgMTcuODkgMi4yNi0uMzcgNC4yMiA1LjI0IDUuMTIgNy41MSA0LS42OCA3LjItOC4zMyAxMC40My04LjIxIDEuODUuMDcgMy40NyAxLjg2IDUuMzcgMy42M0MyNS42NiAxNSAyMy42MyAzLjMgMjAuOCAzLjN6Ii8+PC9zdmc+;" parent="WIyWlLk6GJQsqaUBKTNV-1" vertex="1">
          <mxGeometry x="571" y="226.25" width="94.03" height="80" as="geometry" />
        </mxCell>
        <mxCell id="U_I_P0XwNfsvV2ErOZ_C-1" value="&lt;b&gt;&lt;font style=&quot;font-size: 15px;&quot;&gt;database&lt;/font&gt;&lt;/b&gt;&lt;div&gt;&lt;b&gt;&lt;font style=&quot;font-size: 15px;&quot;&gt;Receptance&lt;/font&gt;&lt;/b&gt;&lt;div&gt;&lt;b&gt;&lt;font style=&quot;font-size: 15px;&quot;&gt;all_lattices&lt;/font&gt;&lt;/b&gt;&lt;/div&gt;&lt;/div&gt;" style="shape=cylinder3;whiteSpace=wrap;html=1;boundedLbl=1;backgroundOutline=1;size=15;fillColor=#60a917;fontColor=#ffffff;strokeColor=#2D7600;" parent="WIyWlLk6GJQsqaUBKTNV-1" vertex="1">
          <mxGeometry x="-41" y="370" width="120" height="145" as="geometry" />
        </mxCell>
        <mxCell id="U_I_P0XwNfsvV2ErOZ_C-2" value="" style="shape=image;verticalLabelPosition=bottom;labelBackgroundColor=default;verticalAlign=top;aspect=fixed;imageAspect=0;image=data:image/svg+xml,PHN2ZyB4bWxucz0iaHR0cDovL3d3dy53My5vcmcvMjAwMC9zdmciIHZpZXdCb3g9IjAgLTEuMzAwMDAwMDAwMDAwMDA0MyA2MDAuMDE2NDgzNTMwNTk3NSA1Ny42IiBoZWlnaHQ9IjIyOSIgd2lkdGg9IjI1MDAiPjxwYXRoIGZpbGw9IiMzNThjY2IiIGQ9Ik0xMzQuNiAyNy41cy0xLjYgMjAuOCAyMC4yIDIwLjhoMzUuNmEzLjMzIDMuMzMgMCAwIDEgMy4zIDMuMyAzLjMzIDMuMzMgMCAwIDEtMy4zIDMuM2gtMzYuMnMtMjYuOCAxLjQtMjYuOC0yNy40UzE1NC4yLjEgMTU0LjIuMWgzNi4yYTMuMzMgMy4zMyAwIDAgMSAzLjMgMy4zIDMuMzMgMy4zMyAwIDAgMS0zLjMgMy4zaC0zNS42Yy0yMS45IDAtMjAuMiAyMC44LTIwLjIgMjAuOE0zOTYuMSA4LjZjLjktLjcgMy42LTIgNS45LTJoMzguOGEzLjMzIDMuMzMgMCAwIDAgMy4zLTMuMyAzLjMzIDMuMzMgMCAwIDAtMy4zLTMuM0g0MDFjLTUuOCAwLTkuOCAyLjMtMTIuNyA1LjctMi44IDMuMy0zLjUgNy41LTMuNSA5LjdoNy40Yy4zLTMuNyAyLjYtNS43IDMuOS02LjhtNDAuNiAzNy43Yy0uOS43LTMuNiAyLTUuOSAyaC00Mi40YTMuMzMgMy4zMyAwIDAgMC0zLjMgMy4zIDMuMzMgMy4zMyAwIDAgMCAzLjMgMy4zaDQzLjRjNS44IDAgOS44LTIuMyAxMi43LTUuNyAyLjgtMy4zIDMuNS03LjUgMy41LTkuN2gtNy40Yy0uMiAzLjctMi41IDUuOC0zLjkgNi44bS01LTIyLjFINDAyYy0yLjMgMC00LjktMS4zLTUuOS0yLTEuNC0xLTMuNy0zLjEtMy43LTYuOEgzODVjMCAyLjIuNyA2LjQgMy41IDkuNyAyLjkgMy4zIDYuOSA1LjcgMTIuNyA1LjdoMjkuN2MyLjMgMCA0LjkgMS4zIDUuOSAyIDEuNCAxIDMuNyAzLjEgMy43IDYuOGg3LjRjMC0yLjItLjctNi40LTMuNS05LjctMi45LTMuNC03LTUuNy0xMi43LTUuN20xNjUgMjQuMWgtNDQuOVYzLjRhMy4zMyAzLjMzIDAgMCAwLTMuMy0zLjMgMy4zMyAzLjMzIDAgMCAwLTMuMyAzLjN2NTEuNGg1MS41YTMuMzMgMy4zMyAwIDAgMCAzLjMtMy4zYzAtMS44LTEuNC0zLjItMy4zLTMuMk0zNjguMi4xYTMuMDQgMy4wNCAwIDAgMC0yLjQgMS4xbC0zNC45IDM0LjlMMjk1LjcuOWMtLjYtLjUtMS4zLS44LTIuMS0uOGEzLjMzIDMuMzMgMCAwIDAtMy4zIDMuM3Y1MS40aDYuNlYxMS4zbDMxLjggMzEuOC40LjMuMy4yLjMuMS4yLjFjMSAuNCAxLjguMiAyLjQgMGguMWwuNS0uMi4xLS4xLjUtLjQgMzEuNy0zMS43djQzLjVoNi42VjMuNWMtLjMtMS45LTEuOC0zLjQtMy42LTMuNG0tODkuMyAyNy40YzAgMjguOC0yNi44IDI3LjQtMjYuOCAyNy40aC0yMi40cy0yNi44IDEuNC0yNi44LTI3LjRTMjI5LjcuMSAyMjkuNy4xaDIyLjRzMjYuOC0xLjQgMjYuOCAyNy40TTI1MS42IDYuN2gtMjEuM2MtMjEuOCAwLTIwLjIgMjAuOC0yMC4yIDIwLjhzLTEuNiAyMC44IDIwLjIgMjAuOGgyMS4zYzIxLjggMCAyMC4yLTIwLjggMjAuMi0yMC44czEuNi0yMC44LTIwLjItMjAuOG0yODEuNyAyMC44YzAgMjguOC0yNi44IDI3LjQtMjYuOCAyNy40aC0yMi40cy0yNi44IDEuNC0yNi44LTI3LjRTNDg0LjEuMSA0ODQuMS4xaDIyLjRzMjYuOC0xLjQgMjYuOCAyNy40TTUwNS45IDYuN2gtMjEuM2MtMjEuOCAwLTIwLjIgMjAuOC0yMC4yIDIwLjhzLTEuNiAyMC44IDIwLjIgMjAuOGgyMS4zYzIxLjggMCAyMC4yLTIwLjggMjAuMi0yMC44czEuNi0yMC44LTIwLjItMjAuOE0xMDEgOC4xYzAtNC40LTMuNi04LTgtOEg2Mi4yYy00LjQgMC04IDMuNi04IDh2MzguOGMwIDQuNCAzLjYgOCA4IDhIOTNjNC40IDAgOC0zLjYgOC04VjguMXpNMzguOC4xSDhjLTQuNCAwLTggMy42LTggOCAwIDEuOS43IDMuNiAxLjggNXYuMUwzMi42IDUyaC4xYzEuNSAxLjcgMy42IDIuOSA2LjEgMi45IDQuNCAwIDgtMy42IDgtOFY4LjFjMC00LjQtMy42LTgtOC04Ii8+PC9zdmc+;" parent="WIyWlLk6GJQsqaUBKTNV-1" vertex="1">
          <mxGeometry x="-68" y="590" width="190" height="17.42" as="geometry" />
        </mxCell>
        <mxCell id="U_I_P0XwNfsvV2ErOZ_C-5" value="" style="shape=flexArrow;endArrow=classic;html=1;rounded=0;" parent="WIyWlLk6GJQsqaUBKTNV-1" edge="1">
          <mxGeometry width="50" height="50" relative="1" as="geometry">
            <mxPoint x="26" y="570" as="sourcePoint" />
            <mxPoint x="26" y="530" as="targetPoint" />
          </mxGeometry>
        </mxCell>
        <mxCell id="4xq3oz6O8U2vQ9kAR6v4-0" value="" style="shape=flexArrow;endArrow=classic;html=1;rounded=0;" edge="1" parent="WIyWlLk6GJQsqaUBKTNV-1">
          <mxGeometry width="50" height="50" relative="1" as="geometry">
            <mxPoint x="551" y="265.42" as="sourcePoint" />
            <mxPoint x="501" y="265.25" as="targetPoint" />
          </mxGeometry>
        </mxCell>
        <mxCell id="4xq3oz6O8U2vQ9kAR6v4-2" value="" style="shape=flexArrow;endArrow=classic;html=1;rounded=0;" edge="1" parent="WIyWlLk6GJQsqaUBKTNV-1">
          <mxGeometry width="50" height="50" relative="1" as="geometry">
            <mxPoint x="18.33" y="360" as="sourcePoint" />
            <mxPoint x="18.33" y="320" as="targetPoint" />
          </mxGeometry>
        </mxCell>
      </root>
    </mxGraphModel>
  </diagram>
</mxfile>
